{
	"bufferViews":[{
		"buffer":0,
		"byteOffset":0,
		"byteLength":66,
		"target":34963
	},
	{
		"buffer":0,
		"byteOffset":68,
		"byteLength":736,
		"target":34962,
		"byteStride":32
	},
	{
		"buffer":1,
		"byteOffset":0,
		"byteLength":22182,
		"target":34963
	},
	{
		"buffer":1,
		"byteOffset":22184,
		"byteLength":270880,
		"target":34962,
		"byteStride":32
	},
	{
		"buffer":2,
		"byteOffset":0,
		"byteLength":12828,
		"target":34963
	},
	{
		"buffer":2,
		"byteOffset":12828,
		"byteLength":137952,
		"target":34962,
		"byteStride":32
	},
	{
		"buffer":3,
		"byteOffset":0,
		"byteLength":8868,
		"target":34963
	},
	{
		"buffer":3,
		"byteOffset":8868,
		"byteLength":91072,
		"target":34962,
		"byteStride":32
	},
	{
		"buffer":4,
		"byteOffset":0,
		"byteLength":6876,
		"target":34963
	},
	{
		"buffer":4,
		"byteOffset":6876,
		"byteLength":72736,
		"target":34962,
		"byteStride":32
	},
	{
		"buffer":5,
		"byteOffset":0,
		"byteLength":4860,
		"target":34963
	},
	{
		"buffer":5,
		"byteOffset":4860,
		"byteLength":54016,
		"target":34962,
		"byteStride":32
	},
	{
		"buffer":6,
		"byteOffset":0,
		"byteLength":234,
		"target":34963
	},
	{
		"buffer":6,
		"byteOffset":236,
		"byteLength":2432,
		"target":34962,
		"byteStride":32
	},
	{
		"buffer":7,
		"byteOffset":0,
		"byteLength":4098,
		"target":34963
	},
	{
		"buffer":7,
		"byteOffset":4100,
		"byteLength":60576,
		"target":34962,
		"byteStride":32
	},
	{
		"buffer":8,
		"byteOffset":0,
		"byteLength":3966,
		"target":34963
	},
	{
		"buffer":8,
		"byteOffset":3968,
		"byteLength":54432,
		"target":34962,
		"byteStride":32
	}],
	"asset":{
		"version":"2.0",
		"generator":"Maxon Cinema 4D 2023.2.2 (#200000219)"
	},
	"scenes":[{
		"nodes":[0]
	}],
	"nodes":[{
		"name":"MAPA",
		"translation":[-0.11612123996019364,
		0.23139609396457673,
		0.0],
		"rotation":[0.0,
		0.0,
		0.0,
		-1.0],
		"scale":[1.0,
		1.0,
		1.0],
		"children":[1,
		2,
		3,
		4,
		5,
		6,
		7,
		8,
		9]
	},
	{
		"name":"MAPA-OctGlossy1.1",
		"mesh":0
	},
	{
		"name":"MAPA-OctGlossy1",
		"mesh":1
	},
	{
		"name":"MAPA-OctGlossy1.2",
		"mesh":2
	},
	{
		"name":"MAPA-OctGlossy1.3",
		"mesh":3
	},
	{
		"name":"MAPA-OctGlossy1.4",
		"mesh":4
	},
	{
		"name":"MAPA-OctGlossy1.5",
		"mesh":5
	},
	{
		"name":"MAPA-OctGlossy1.1",
		"mesh":6
	},
	{
		"name":"MAPA-OctGlossy1",
		"mesh":7
	},
	{
		"name":"MAPA-OctGlossy1",
		"mesh":8
	}],
	"meshes":[{
		"name":"MAPA-OctGlossy1.1",
		"primitives":[{
			"attributes":{
				"POSITION":1,
				"NORMAL":2,
				"TEXCOORD_0":3
			},
			"indices":0,
			"material":0
		}]
	},
	{
		"name":"MAPA-OctGlossy1",
		"primitives":[{
			"attributes":{
				"POSITION":5,
				"NORMAL":6,
				"TEXCOORD_0":7
			},
			"indices":4,
			"material":1
		}]
	},
	{
		"name":"MAPA-OctGlossy1.2",
		"primitives":[{
			"attributes":{
				"POSITION":9,
				"NORMAL":10,
				"TEXCOORD_0":11
			},
			"indices":8,
			"material":2
		}]
	},
	{
		"name":"MAPA-OctGlossy1.3",
		"primitives":[{
			"attributes":{
				"POSITION":13,
				"NORMAL":14,
				"TEXCOORD_0":15
			},
			"indices":12,
			"material":3
		}]
	},
	{
		"name":"MAPA-OctGlossy1.4",
		"primitives":[{
			"attributes":{
				"POSITION":17,
				"NORMAL":18,
				"TEXCOORD_0":19
			},
			"indices":16,
			"material":4
		}]
	},
	{
		"name":"MAPA-OctGlossy1.5",
		"primitives":[{
			"attributes":{
				"POSITION":21,
				"NORMAL":22,
				"TEXCOORD_0":23
			},
			"indices":20,
			"material":5
		}]
	},
	{
		"name":"MAPA-OctGlossy1.1",
		"primitives":[{
			"attributes":{
				"POSITION":25,
				"NORMAL":26,
				"TEXCOORD_0":27
			},
			"indices":24,
			"material":6
		}]
	},
	{
		"name":"MAPA-OctGlossy1",
		"primitives":[{
			"attributes":{
				"POSITION":29,
				"NORMAL":30,
				"TEXCOORD_0":31
			},
			"indices":28,
			"material":7
		}]
	},
	{
		"name":"MAPA-OctGlossy1",
		"primitives":[{
			"attributes":{
				"POSITION":33,
				"NORMAL":34,
				"TEXCOORD_0":35
			},
			"indices":32,
			"material":8
		}]
	}],
	"accessors":[{
		"bufferView":0,
		"type":"SCALAR",
		"componentType":5123,
		"count":33,
		"byteOffset":0,
		"min":[0],
		"max":[22]
	},
	{
		"bufferView":1,
		"type":"VEC3",
		"componentType":5126,
		"count":23,
		"byteOffset":0,
		"min":[-3.273320436477661,
		0.2036377191543579,
		-2.7888669967651369],
		"max":[3.0410778522491457,
		0.2593821883201599,
		2.7888669967651369]
	},
	{
		"bufferView":1,
		"type":"VEC3",
		"componentType":5126,
		"count":23,
		"byteOffset":12,
		"min":[-1.0,
		-1.0,
		-1.0],
		"max":[1.0,
		1.0,
		1.0]
	},
	{
		"bufferView":1,
		"type":"VEC2",
		"componentType":5126,
		"count":23,
		"byteOffset":24,
		"min":[0.0,
		0.0],
		"max":[1.0,
		1.0]
	},
	{
		"bufferView":2,
		"type":"SCALAR",
		"componentType":5123,
		"count":11091,
		"byteOffset":0,
		"min":[0],
		"max":[8464]
	},
	{
		"bufferView":3,
		"type":"VEC3",
		"componentType":5126,
		"count":8465,
		"byteOffset":0,
		"min":[-3.381852388381958,
		0.16088712215423585,
		-2.855295181274414],
		"max":[3.1315650939941408,
		0.28829890489578249,
		2.8545737266540529]
	},
	{
		"bufferView":3,
		"type":"VEC3",
		"componentType":5126,
		"count":8465,
		"byteOffset":12,
		"min":[-0.9999998807907105,
		-1.0,
		-1.0],
		"max":[0.9999969005584717,
		1.0,
		0.9999991655349731]
	},
	{
		"bufferView":3,
		"type":"VEC2",
		"componentType":5126,
		"count":8465,
		"byteOffset":24,
		"min":[0.0,
		0.0],
		"max":[1.0,
		1.0]
	},
	{
		"bufferView":4,
		"type":"SCALAR",
		"componentType":5123,
		"count":6414,
		"byteOffset":0,
		"min":[0],
		"max":[4310]
	},
	{
		"bufferView":5,
		"type":"VEC3",
		"componentType":5126,
		"count":4311,
		"byteOffset":0,
		"min":[-3.1963045597076418,
		0.15785518288612367,
		-2.6926844120025636],
		"max":[3.016587257385254,
		0.30200693011283877,
		2.734374523162842]
	},
	{
		"bufferView":5,
		"type":"VEC3",
		"componentType":5126,
		"count":4311,
		"byteOffset":12,
		"min":[-0.9999639391899109,
		-1.0,
		-0.9999971389770508],
		"max":[0.999934732913971,
		1.0,
		0.9999970197677612]
	},
	{
		"bufferView":5,
		"type":"VEC2",
		"componentType":5126,
		"count":4311,
		"byteOffset":24,
		"min":[0.0,
		0.0],
		"max":[1.0,
		1.0]
	},
	{
		"bufferView":6,
		"type":"SCALAR",
		"componentType":5123,
		"count":4434,
		"byteOffset":0,
		"min":[0],
		"max":[2845]
	},
	{
		"bufferView":7,
		"type":"VEC3",
		"componentType":5126,
		"count":2846,
		"byteOffset":0,
		"min":[-3.114827871322632,
		0.197996124625206,
		-2.638322353363037],
		"max":[2.9614639282226564,
		0.30810460448265078,
		2.604639768600464]
	},
	{
		"bufferView":7,
		"type":"VEC3",
		"componentType":5126,
		"count":2846,
		"byteOffset":12,
		"min":[-0.9999660849571228,
		-1.0,
		-0.9999485611915588],
		"max":[0.999976634979248,
		1.0,
		0.9999769926071167]
	},
	{
		"bufferView":7,
		"type":"VEC2",
		"componentType":5126,
		"count":2846,
		"byteOffset":24,
		"min":[0.0,
		0.0],
		"max":[1.0,
		1.0]
	},
	{
		"bufferView":8,
		"type":"SCALAR",
		"componentType":5123,
		"count":3438,
		"byteOffset":0,
		"min":[0],
		"max":[2272]
	},
	{
		"bufferView":9,
		"type":"VEC3",
		"componentType":5126,
		"count":2273,
		"byteOffset":0,
		"min":[-3.0911216735839845,
		0.20792502164840699,
		-2.624333143234253],
		"max":[2.916801691055298,
		0.31955063343048098,
		2.521345615386963]
	},
	{
		"bufferView":9,
		"type":"VEC3",
		"componentType":5126,
		"count":2273,
		"byteOffset":12,
		"min":[-0.9998553395271301,
		-1.0,
		-0.9999147057533264],
		"max":[0.9997454285621643,
		1.0,
		0.9999986886978149]
	},
	{
		"bufferView":9,
		"type":"VEC2",
		"componentType":5126,
		"count":2273,
		"byteOffset":24,
		"min":[0.0,
		0.0],
		"max":[1.0,
		1.0]
	},
	{
		"bufferView":10,
		"type":"SCALAR",
		"componentType":5123,
		"count":2430,
		"byteOffset":0,
		"min":[0],
		"max":[1687]
	},
	{
		"bufferView":11,
		"type":"VEC3",
		"componentType":5126,
		"count":1688,
		"byteOffset":0,
		"min":[-3.067789077758789,
		0.21496394276618958,
		-2.61061954498291],
		"max":[2.8847367763519289,
		0.3281058371067047,
		2.4474220275878908]
	},
	{
		"bufferView":11,
		"type":"VEC3",
		"componentType":5126,
		"count":1688,
		"byteOffset":12,
		"min":[-0.9999784231185913,
		-1.0,
		-0.9996632933616638],
		"max":[0.9997051358222961,
		1.0,
		0.9999378323554993]
	},
	{
		"bufferView":11,
		"type":"VEC2",
		"componentType":5126,
		"count":1688,
		"byteOffset":24,
		"min":[0.0,
		0.0],
		"max":[1.0,
		1.0]
	},
	{
		"bufferView":12,
		"type":"SCALAR",
		"componentType":5123,
		"count":117,
		"byteOffset":0,
		"min":[0],
		"max":[75]
	},
	{
		"bufferView":13,
		"type":"VEC3",
		"componentType":5126,
		"count":76,
		"byteOffset":0,
		"min":[-3.273320436477661,
		0.2036377191543579,
		-2.7888669967651369],
		"max":[3.0410778522491457,
		0.2593821883201599,
		2.7888669967651369]
	},
	{
		"bufferView":13,
		"type":"VEC3",
		"componentType":5126,
		"count":76,
		"byteOffset":12,
		"min":[-1.0,
		-1.0,
		-0.999997615814209],
		"max":[1.0,
		1.0,
		1.0]
	},
	{
		"bufferView":13,
		"type":"VEC2",
		"componentType":5126,
		"count":76,
		"byteOffset":24,
		"min":[0.0,
		0.0],
		"max":[1.0,
		1.0]
	},
	{
		"bufferView":14,
		"type":"SCALAR",
		"componentType":5123,
		"count":2049,
		"byteOffset":0,
		"min":[0],
		"max":[1892]
	},
	{
		"bufferView":15,
		"type":"VEC3",
		"componentType":5126,
		"count":1893,
		"byteOffset":0,
		"min":[-2.5826668739318849,
		0.16088712215423585,
		-2.855295181274414],
		"max":[3.1320042610168459,
		0.26088711619377139,
		2.854407787322998]
	},
	{
		"bufferView":15,
		"type":"VEC3",
		"componentType":5126,
		"count":1893,
		"byteOffset":12,
		"min":[-0.9999434351921082,
		-0.12184730917215347,
		-0.9999991655349731],
		"max":[0.9999910593032837,
		1.0,
		1.0]
	},
	{
		"bufferView":15,
		"type":"VEC2",
		"componentType":5126,
		"count":1893,
		"byteOffset":24,
		"min":[0.0,
		0.0],
		"max":[0.9986023902893066,
		1.0]
	},
	{
		"bufferView":16,
		"type":"SCALAR",
		"componentType":5123,
		"count":1983,
		"byteOffset":0,
		"min":[0],
		"max":[1700]
	},
	{
		"bufferView":17,
		"type":"VEC3",
		"componentType":5126,
		"count":1701,
		"byteOffset":0,
		"min":[-2.5826668739318849,
		0.16088712215423585,
		-2.855295181274414],
		"max":[3.1320042610168459,
		0.26088711619377139,
		2.854407787322998]
	},
	{
		"bufferView":17,
		"type":"VEC3",
		"componentType":5126,
		"count":1701,
		"byteOffset":12,
		"min":[-0.9999573826789856,
		-1.0,
		-0.9957906007766724],
		"max":[0.9946100115776062,
		1.0,
		0.9953423142433167]
	},
	{
		"bufferView":17,
		"type":"VEC2",
		"componentType":5126,
		"count":1701,
		"byteOffset":24,
		"min":[0.000046762044803472239,
		0.0],
		"max":[1.0,
		0.8179612159729004]
	}],
	"buffers":[{
		"uri":"data:application/octet-stream;base64,",
		"byteLength":804
	},
	{
		"uri":"data:application/octet-stream;base64,",
		"byteLength":293064
	},
	{
		"uri":"data:application/octet-stream;base64,",
		"byteLength":150780
	},
	{
		"uri":"data:application/octet-stream;base64,",
		"byteLength":99940
	},
	{
		"uri":"data:application/octet-stream;base64,",
		"byteLength":79612
	},
	{
		"uri":"data:application/octet-stream;base64,",
		"byteLength":58876
	},
	{
		"uri":"data:application/octet-stream;base64,",
		"byteLength":2668
	},
	{
		"uri":"data:application/octet-stream;base64,",
		"byteLength":64676
	},
	{
		"uri":"data:application/octet-stream;base64,",
		"byteLength":58400
	}],
	"materials":[{
		"pbrMetallicRoughness":{
			"baseColorFactor":[1.0,
			1.0,
			1.0,
			1.0],
			"metallicFactor":1.0,
			"roughnessFactor":1.0
		},
		"emissiveFactor":[0.0,
		0.0,
		0.0],
		"alphaMode":"OPAQUE",
		"doubleSided":false,
		"name":""
	},
	{
		"pbrMetallicRoughness":{
			"baseColorFactor":[1.0,
			1.0,
			1.0,
			1.0],
			"metallicFactor":1.0,
			"roughnessFactor":1.0
		},
		"emissiveFactor":[0.0,
		0.0,
		0.0],
		"alphaMode":"OPAQUE",
		"doubleSided":false,
		"name":""
	},
	{
		"pbrMetallicRoughness":{
			"baseColorFactor":[1.0,
			1.0,
			1.0,
			1.0],
			"metallicFactor":1.0,
			"roughnessFactor":1.0
		},
		"emissiveFactor":[0.0,
		0.0,
		0.0],
		"alphaMode":"OPAQUE",
		"doubleSided":false,
		"name":""
	},
	{
		"pbrMetallicRoughness":{
			"baseColorFactor":[1.0,
			1.0,
			1.0,
			1.0],
			"metallicFactor":1.0,
			"roughnessFactor":1.0
		},
		"emissiveFactor":[0.0,
		0.0,
		0.0],
		"alphaMode":"OPAQUE",
		"doubleSided":false,
		"name":""
	},
	{
		"pbrMetallicRoughness":{
			"baseColorFactor":[1.0,
			1.0,
			1.0,
			1.0],
			"metallicFactor":1.0,
			"roughnessFactor":1.0
		},
		"emissiveFactor":[0.0,
		0.0,
		0.0],
		"alphaMode":"OPAQUE",
		"doubleSided":false,
		"name":""
	},
	{
		"pbrMetallicRoughness":{
			"baseColorFactor":[1.0,
			1.0,
			1.0,
			1.0],
			"metallicFactor":1.0,
			"roughnessFactor":1.0
		},
		"emissiveFactor":[0.0,
		0.0,
		0.0],
		"alphaMode":"OPAQUE",
		"doubleSided":false,
		"name":""
	},
	{
		"pbrMetallicRoughness":{
			"baseColorFactor":[1.0,
			1.0,
			1.0,
			1.0],
			"metallicFactor":1.0,
			"roughnessFactor":1.0
		},
		"emissiveFactor":[0.0,
		0.0,
		0.0],
		"alphaMode":"OPAQUE",
		"doubleSided":false,
		"name":""
	},
	{
		"pbrMetallicRoughness":{
			"baseColorFactor":[1.0,
			1.0,
			1.0,
			1.0],
			"metallicFactor":1.0,
			"roughnessFactor":1.0
		},
		"emissiveFactor":[0.0,
		0.0,
		0.0],
		"alphaMode":"OPAQUE",
		"doubleSided":false,
		"name":""
	},
	{
		"pbrMetallicRoughness":{
			"baseColorFactor":[1.0,
			1.0,
			1.0,
			1.0],
			"metallicFactor":1.0,
			"roughnessFactor":1.0
		},
		"emissiveFactor":[0.0,
		0.0,
		0.0],
		"alphaMode":"OPAQUE",
		"doubleSided":false,
		"name":""
	}]
}